<svg width="25" height="25" viewBox="0 0 25 25" fill="none" xmlns="http://www.w3.org/2000/svg">
<path d="M12.4999 0.480774C19.138 0.480774 24.5192 5.86198 24.5192 12.5C24.5192 19.138 19.138 24.5192 12.4999 24.5192C5.86191 24.5192 0.480713 19.138 0.480713 12.5C0.480713 5.86198 5.86191 0.480774 12.4999 0.480774Z" fill="#2E2C53" stroke="#2E2C53" stroke-width="0.480769"/>
<path fill-rule="evenodd" clip-rule="evenodd" d="M13.7425 4.42676C10.5787 4.97703 8.17312 7.73645 8.17312 11.0577C8.17312 14.775 11.1866 17.7885 14.9039 17.7885C16.2839 17.7885 17.567 17.3731 18.6348 16.6606C17.2303 18.5142 15.005 19.7115 12.5 19.7115C8.25168 19.7115 4.80774 16.2676 4.80774 12.0192C4.80774 7.77088 8.25168 4.32693 12.5 4.32693C12.923 4.32693 13.3381 4.36108 13.7425 4.42676Z" fill="white"/>
</svg>
