<svg width="25" height="25" viewBox="0 0 52 52" fill="none" xmlns="http://www.w3.org/2000/svg">
<path d="M26 1C39.8071 1 51 12.1929 51 26C51 39.8071 39.8071 51 26 51C12.1929 51 1 39.8071 1 26C1 12.1929 12.1929 1 26 1Z" fill="black" stroke="black"/>
<path fill-rule="evenodd" clip-rule="evenodd" d="M28.5844 9.20763C22.0036 10.3522 17 16.0918 17 23C17 30.732 23.268 37 31 37C33.8705 37 36.5392 36.1361 38.7603 34.6541C35.8389 38.5096 31.2103 41 26 41C17.1634 41 10 33.8366 10 25C10 16.1634 17.1634 9 26 9C26.8798 9 27.7431 9.07102 28.5844 9.20763Z" fill="white"/>
</svg>
