<svg width="25" height="25" viewBox="0 0 25 25" fill="none" xmlns="http://www.w3.org/2000/svg">
<path d="M12.4999 0.480774C19.138 0.480774 24.5192 5.86198 24.5192 12.5C24.5192 19.138 19.138 24.5192 12.4999 24.5192C5.86191 24.5192 0.480713 19.138 0.480713 12.5C0.480713 5.86198 5.86191 0.480774 12.4999 0.480774Z" fill="#E6E7EE"/>
<path fill-rule="evenodd" clip-rule="evenodd" d="M19.1296 16.226H15.443L14.6451 19.8251L12.2131 17.5965L9.74256 19.7823L9.01905 16.226H5.38977L7.23309 13.0332L4.51501 10.5426L7.66097 9.55068L7.00333 6.31828L10.4451 7.46992L12.2597 4.32693L14.1029 7.51953L17.6189 6.41092L16.905 9.63136L20.0331 10.678L17.3149 13.0828L19.1296 16.226ZM10.3366 12.5C10.3366 11.3052 11.3053 10.3366 12.5001 10.3366C13.6949 10.3366 14.6635 11.3052 14.6635 12.5C14.6635 13.6948 13.6949 14.6635 12.5001 14.6635C11.3053 14.6635 10.3366 13.6948 10.3366 12.5ZM12.5001 9.85578C11.0397 9.85578 9.85583 11.0396 9.85583 12.5C9.85583 13.9604 11.0397 15.1442 12.5001 15.1442C13.9604 15.1442 15.1443 13.9604 15.1443 12.5C15.1443 11.0396 13.9604 9.85578 12.5001 9.85578Z" fill="#EA8B1D"/>
</svg>
