<svg width="25" height="25" viewBox="0 0 52 52" fill="none" xmlns="http://www.w3.org/2000/svg">
<path d="M26 1C39.8071 1 51 12.1929 51 26C51 39.8071 39.8071 51 26 51C12.1929 51 1 39.8071 1 26C1 12.1929 12.1929 1 26 1Z" fill="white" stroke="black" stroke-opacity="0.2"/>
<path fill-rule="evenodd" clip-rule="evenodd" d="M39.7894 33.75H32.1213L30.4617 41.2361L25.4031 36.6008L20.2644 41.1471L18.7595 33.75H11.2106L15.0447 27.1091L9.39111 21.9286L15.9347 19.8654L14.5668 13.142L21.7257 15.5374L25.5 9L29.334 15.6406L36.6472 13.3347L35.1622 20.0332L41.6687 22.2102L36.0149 27.2123L39.7894 33.75ZM21.5 26C21.5 23.5148 23.5148 21.5 26 21.5C28.4852 21.5 30.5 23.5148 30.5 26C30.5 28.4852 28.4852 30.5 26 30.5C23.5148 30.5 21.5 28.4852 21.5 26ZM26 20.5C22.9624 20.5 20.5 22.9624 20.5 26C20.5 29.0376 22.9624 31.5 26 31.5C29.0376 31.5 31.5 29.0376 31.5 26C31.5 22.9624 29.0376 20.5 26 20.5Z" fill="#EA8B1D"/>
</svg>
